<?xml version="1.0"?><svg width="793.7007874015749" height="1122.5196850393702" xmlns="http://www.w3.org/2000/svg">
 <title>brasil</title>

 <g>
  <title>Layer 1</title>
  <path fill="none" fill-rule="evenodd" stroke="black" stroke-width="1pt" id="path633" d="m281.25,144.862198l7.5,-1.25l-1.25,8.75l7.5,6.25l2.5,7.5l-5,11.25l-1.25,11.25l5,15l11.25,7.5l15,-2.5l18.75,-8.75l21.25,3.75l-2.5,-10l12.5,-2.5l3.75,-3.75l15,8.75l10,-2.5l13.75,1.25l10,-11.25l1.25,-8.75l13.75,-13.75l11.25,12.5l1.25,16.25l7.5,15l8.75,3.75l-7.5,13.75l-12.5,12.5l-5,6.25l1.25,11.25l7.5,0l5,-15l16.25,0l18.75,1.25l0,8.75l-3.75,8.750015l-8.75,6.25l12.5,-2.5l6.25,-11.250015l13.75,-2.5l30,11.250015l7.5,7.5l8.75,-2.5l5,10l0,8.75l3.75,3.75l13.75,-5l15,5l20,5l22.5,-1.25l26.25,17.5l12.5,11.25l16.25,12.5l21.25,6.25l10,13.75l3.75,21.25l-5,22.5l-17.5,19.999878l-11.25,11.25l-15,17.500122l-11.25,18.75l-12.5,5l-7.5,10l1.25,13.75l0,18.75l-3.75,22.499969l-6.25,20l-10,15l1.25,12.5l-13.75,16.25l-10,15l0,12.5l-15,7.5l-3.75,5l0,2.5l-12.5,1.25l-17.5,-3.75l-8.75,5l-8.75,1.25l-7.5,5l-3.75,5l-10,0l-18.75,13.75l-10,10l-10,6.25l-3.75,17.5l2.5,12.5l-3.75,16.25l-12.5,12.5l-8.75,17.5l-16.25,25l-13.75,7.5l-10,15l-6.25,12.5l-6.25,1.25l-2.5,-11.25l7.5,-7.5l-7.5,-7.5l-5,-5l-20,-12.5l-2.5,-7.5l-7.5,5l-12.5,-15l-10,0l3.75,-7.5l18.75,-21.25l21.25,-17.5l11.25,-7.5l2.5,-16.25l-5,-8.75l-8.75,-2.5l5,-18.75l-5,-11.25l-12.5,3.75l-6.25,-28.75l-13.75,-3.75l-21.25,1.25l1.25,-20l-6.25,-17.5l10,-30l-5,-12.5l-10,-7.5l0,-13.75l-31.25,0l-5,-18.749969l3.75,-3.75l-2.5,-17.5c0,0 -12.5,-8.75 -15,-8.75c-2.5,0 -25,-5 -25,-5l-15,-12.5c0,0 -7.5,3.75 -12.5,1.25c-5,-2.5 -18.75,-20.000122 -18.75,-20.000122l0,-26.249878l-23.75,6.25l-11.25,13.749878l-11.25,0l-11.25,10l-20,-3.75l-6.25,2.5l-7.5,-7.5l1.25,-19.999878l-10,9.999878l-17.5,0l-2.5,-8.749878l-13.75,-1.25l3.75,-7.5l-20,-23.75l3.75,-12.5l12.5,-5l-2.5,-8.75l2.5,-16.25l32.5,-18.75l15,3.75l13.75,-56.25l-5,-13.750015l-10,-5l2.5,-12.5l15,-2.5l-5,-7.5l-6.25,0l0,-8.75l28.75,-7.5l3.75,6.25l10,-10l6.25,13.75l11.25,8.75l16.25,-3.75l23.75,-11.25l11.25,-10l-5,-6.25l-11.25,-15l-6.25,-13.75l16.25,5l15,3.75l8.75,-10l20,-6.25l12.5,-11.25z"/>
 </g>
</svg>